# xmcd
# Copyright (C) 1995-1998 Ti Kan
#
# Track frame offsets:
#       150
#       16672
#       31950
#       51090
#       66300
#
# Disc length: 1103 seconds
#
# Revision: 0
# Processed by: cddbd v1.4PL0 Copyright (c) Steve Scherf et al.
# Submitted via: CD-Transfer v1.0
#
DISCID=37044d05
DTITLE=Supernova - Million Brilliant
DYEAR=2000
DGENRE=
TTITLE0=Million Brilliant
TTITLE1=Stump
TTITLE2=Marvellous
TTITLE3=Didn't I Say So?
TTITLE4=Dreaming Of Me
EXTD=
EXTT0=
EXTT1=
EXTT2=
EXTT3=
EXTT4=
PLAYORDER=
